<svg xmlns="http://www.w3.org/2000/svg" width="100%" height="100%" viewBox="0 0 278 560.001" preserveAspectRatio="none">
  <g id="border" transform="translate(-26 -26)" fill="none">
    <path d="M273,586H53a26.627,26.627,0,0,0-26.5-26c-.168,0-.336,0-.5,0V53c.153,0,.321,0,.5,0A26.531,26.531,0,0,0,53,26.5c0-.164,0-.332,0-.5H278c0,.154,0,.321,0,.5A26.628,26.628,0,0,0,304,53V560.38A26.524,26.524,0,0,0,273,586Z" stroke="none"/>
    <path d="M 271.1092529296875 584 C 272.3887634277344 569.4931640625 284.733154296875 557.9998168945312 299.5002136230469 557.9998168945312 C 300.3342895507812 557.9998168945312 301.1697082519531 558.0361938476562 302.0002136230469 558.1084594726562 L 302.0002136230469 54.89059066772461 C 287.9873657226562 53.65459060668945 276.7863464355469 42.09528732299805 276.0397644042969 28.00012016296387 L 54.96106719970703 28.00012016296387 C 54.20367813110352 42.52298736572266 42.52294921875 54.20371627807617 28.00008201599121 54.96110534667969 L 28.00008201599121 558.03955078125 C 42.09531021118164 558.7860717773438 53.65462112426758 569.9871215820312 54.89056015014648 584 L 271.1092529296875 584 M 273.0043640136719 586.0009765625 L 273.0043640136719 586 L 52.99543762207031 586 C 52.73015213012695 571.6629638671875 40.84458160400391 559.9998168945312 26.49958038330078 559.9998168945312 C 26.33165168762207 559.9998168945312 26.16358184814453 560.0014038085938 26.00008201599121 560.0044555664062 L 26.00008201599121 52.99547958374023 C 26.1535816192627 52.99819183349609 26.3212947845459 53.0001220703125 26.49958038330078 53.0001220703125 C 41.11201095581055 53.0001220703125 53.00008010864258 41.1120491027832 53.00008010864258 26.49962043762207 C 53.00008010864258 26.33547782897949 52.99850845336914 26.16740608215332 52.99543762207031 26.00012016296387 L 278.0047302246094 26.00012016296387 C 278.0020141601562 26.15362167358398 278.0000915527344 26.32133483886719 278.0000915527344 26.49962043762207 C 278.0000915527344 40.84412002563477 289.6637268066406 52.73012161254883 304.0002136230469 52.99547958374023 L 304.0002136230469 560.3804321289062 C 302.5259399414062 560.128173828125 301.0123596191406 559.9998168945312 299.5002136230469 559.9998168945312 C 285.1556396484375 559.9998168945312 273.2696533203125 571.6634521484375 273.0043640136719 586 L 273.0043640136719 586.0009765625 Z" stroke="none" fill="#fff"/>
  </g>
</svg>
